<?xml version="1.0" encoding="utf-8"?>
<!-- Generator: Adobe Illustrator 26.2.0, SVG Export Plug-In . SVG Version: 6.00 Build 0)  -->
<svg version="1.1" id="Icon_x5F_contour" xmlns="http://www.w3.org/2000/svg" xmlns:xlink="http://www.w3.org/1999/xlink" x="0px"
	 y="0px" viewBox="0 0 192 192" style="enable-background:new 0 0 192 192;" xml:space="preserve">
<path d="M68.71332,99.59833L86.53156,128h-9.24182L63.6488,105.83466L49.93396,128h-8.46552L59.4715,99.78619L42.76227,73h9.3158
	L64.573,93.3996L76.99402,73h8.39154L68.71332,99.59833z M172,50.49707V176H60v-23.96484H16V48h44V16h81.81494L172,50.49707z
	 M144,48h15.18494L144,30.64569V48z M104,144.03516V56H24v88.03516H104z M164,56h-28V24H68v24h44v104.03516H68V168h96V56z"/>
<g>
</g>
<g>
</g>
<g>
</g>
<g>
</g>
<g>
</g>
<g>
</g>
<g>
</g>
<g>
</g>
<g>
</g>
<g>
</g>
<g>
</g>
<g>
</g>
<g>
</g>
<g>
</g>
<g>
</g>
</svg>
